<svg width="15" height="19" viewBox="0 0 15 19" fill="none" xmlns="http://www.w3.org/2000/svg">
<path d="M1.09436 0.141113H13.3204C13.552 0.141113 13.7742 0.23312 13.9379 0.396894C14.1017 0.560668 14.1937 0.782793 14.1937 1.0144V17.7318C14.1938 17.8099 14.173 17.8866 14.1334 17.9538C14.0938 18.0211 14.0368 18.0766 13.9685 18.1144C13.9002 18.1522 13.823 18.171 13.745 18.1688C13.6669 18.1667 13.5909 18.1436 13.5248 18.1021L7.20739 14.14L0.89001 18.1012C0.823961 18.1427 0.748002 18.1658 0.67003 18.168C0.592058 18.1702 0.51492 18.1514 0.446636 18.1137C0.378352 18.076 0.321416 18.0207 0.281748 17.9535C0.24208 17.8864 0.221127 17.8098 0.221069 17.7318V1.0144C0.221069 0.782793 0.313077 0.560668 0.47685 0.396894C0.640624 0.23312 0.862749 0.141113 1.09436 0.141113ZM12.4471 1.88769H1.96765V15.3643L7.20739 12.0799L12.4471 15.3643V1.88769Z" fill="white"/>
</svg>
