<svg width="17" height="16" viewBox="0 0 17 16" fill="none" xmlns="http://www.w3.org/2000/svg">
<path d="M16.067 11.8161V14.904C16.0671 15.1251 15.9833 15.338 15.8326 15.4998C15.6819 15.6615 15.4754 15.7601 15.2548 15.7756C14.8732 15.8018 14.5615 15.8157 14.3204 15.8157C6.60316 15.8157 0.347778 9.56035 0.347778 1.84308C0.347778 1.60205 0.360878 1.29029 0.38795 0.908657C0.403426 0.688102 0.501985 0.481627 0.663738 0.330895C0.825491 0.180164 1.0384 0.0963966 1.25949 0.0964968H4.34745C4.45577 0.0963871 4.56027 0.136545 4.64064 0.209169C4.72101 0.281793 4.77152 0.381698 4.78235 0.489478C4.80243 0.690334 4.82077 0.850147 4.83824 0.971534C5.01179 2.18272 5.36746 3.36071 5.89317 4.46557C5.97614 4.64023 5.92199 4.84894 5.7648 4.96073L3.88024 6.30734C5.03251 8.99223 7.17215 11.1319 9.85704 12.2841L11.2019 10.4031C11.2569 10.3262 11.3371 10.2711 11.4285 10.2473C11.52 10.2235 11.6169 10.2326 11.7023 10.273C12.807 10.7977 13.9847 11.1525 15.1955 11.3253C15.3169 11.3427 15.4767 11.3619 15.6758 11.3812C15.7834 11.3922 15.8831 11.4428 15.9555 11.5231C16.028 11.6035 16.068 11.7079 16.0679 11.8161H16.067Z" fill="white"/>
</svg>
