<svg width="17" height="20" viewBox="0 0 17 20" fill="none" xmlns="http://www.w3.org/2000/svg">
<path d="M8.2074 16.6058L12.5302 12.283C13.385 11.4281 13.9672 10.3389 14.203 9.15306C14.4388 7.96726 14.3177 6.73817 13.855 5.62119C13.3923 4.50422 12.6088 3.54953 11.6036 2.87785C10.5983 2.20617 9.41642 1.84766 8.2074 1.84766C6.99838 1.84766 5.81651 2.20617 4.81124 2.87785C3.80597 3.54953 3.02245 4.50422 2.55975 5.62119C2.09705 6.73817 1.97596 7.96726 2.21178 9.15306C2.4476 10.3389 3.02975 11.4281 3.88461 12.283L8.2074 16.6058ZM8.2074 19.0755L2.64978 13.5179C1.5506 12.4187 0.802052 11.0182 0.498795 9.49362C0.195538 7.96901 0.35119 6.38871 0.946069 4.95255C1.54095 3.5164 2.54833 2.28891 3.84084 1.42528C5.13334 0.561663 6.65292 0.100707 8.2074 0.100707C9.76188 0.100707 11.2815 0.561663 12.574 1.42528C13.8665 2.28891 14.8738 3.5164 15.4687 4.95255C16.0636 6.38871 16.2193 7.96901 15.916 9.49362C15.6127 11.0182 14.8642 12.4187 13.765 13.5179L8.2074 19.0755ZM8.2074 9.70684C8.67062 9.70684 9.11487 9.52282 9.44242 9.19527C9.76996 8.86772 9.95398 8.42348 9.95398 7.96025C9.95398 7.49703 9.76996 7.05278 9.44242 6.72523C9.11487 6.39769 8.67062 6.21367 8.2074 6.21367C7.74418 6.21367 7.29993 6.39769 6.97238 6.72523C6.64483 7.05278 6.46082 7.49703 6.46082 7.96025C6.46082 8.42348 6.64483 8.86772 6.97238 9.19527C7.29993 9.52282 7.74418 9.70684 8.2074 9.70684ZM8.2074 11.4534C7.28095 11.4534 6.39245 11.0854 5.73736 10.4303C5.08226 9.7752 4.71423 8.8867 4.71423 7.96025C4.71423 7.03381 5.08226 6.14531 5.73736 5.49021C6.39245 4.83512 7.28095 4.46709 8.2074 4.46709C9.13384 4.46709 10.0223 4.83512 10.6774 5.49021C11.3325 6.14531 11.7006 7.03381 11.7006 7.96025C11.7006 8.8867 11.3325 9.7752 10.6774 10.4303C10.0223 11.0854 9.13384 11.4534 8.2074 11.4534Z" fill="white"/>
</svg>
