<svg width="18" height="18" viewBox="0 0 18 18" fill="none" xmlns="http://www.w3.org/2000/svg">
<path d="M9.20739 17.648C4.38421 17.648 0.474487 13.7383 0.474487 8.9151C0.474487 4.09191 4.38421 0.18219 9.20739 0.18219C14.0306 0.18219 17.9403 4.09191 17.9403 8.9151C17.9403 13.7383 14.0306 17.648 9.20739 17.648ZM9.20739 15.9014C11.0603 15.9014 12.8373 15.1654 14.1475 13.8552C15.4577 12.545 16.1937 10.768 16.1937 8.9151C16.1937 7.06221 15.4577 5.28521 14.1475 3.97502C12.8373 2.66483 11.0603 1.92877 9.20739 1.92877C7.35451 1.92877 5.57751 2.66483 4.26732 3.97502C2.95713 5.28521 2.22107 7.06221 2.22107 8.9151C2.22107 10.768 2.95713 12.545 4.26732 13.8552C5.57751 15.1654 7.35451 15.9014 9.20739 15.9014ZM10.0807 8.9151H13.5738V10.6617H8.3341V4.54864H10.0807V8.9151Z" fill="white"/>
</svg>
